<?xml version="1.0"?><svg version="1.2" baseProfile="tiny-ps" viewBox="0 0 104 104" xmlns="http://www.w3.org/2000/svg" xmlns:xlink="http://www.w3.org/1999/xlink"><title>Ваш бренд/организация</title><g><g fill="#f9eac6" transform="matrix(.1 0 0 -.1 0 104)"><path d="m169 954-12-14 6-78c8-100 8-102 55-202l40-85 21-13 21-12-2-40-1-40 24-21c13-12 34-28 47-37l23-15-10-10c-6-6-11-21-11-33v-22l-33-24c-17-14-42-30-54-37l-22-11-16 29c-8 17-15 40-15 53l-1 23-14-19-15-20v13c0 7 5 21 10 32l11 19h-22l10 18c5 9 9 41 9 70v52h-26l-5 26-4 25 14-5 13-6-10 20c-5 10-15 22-20 25l-10 6v-64l22-36 22-36-22 19c-12 10-24 27-27 37-4 11-11 19-16 19h-9v-82l15 12 15 12 15-12c8-6 17-20 20-29l5-18-18-41-19-42-11 25c-15 32-15 55-1 55h10l-5-8-5-9h14c8 0 12 4 9 8-2 4 2 10 8 12l13 5-13 1-13 1 7 12 7 11-11-7-10-6-5 7c-2 5-2 2-1-4l3-13h-28l-7 36-6 35 6 51c4 28 16 73 26 101 11 28 18 53 15 55-2 3-10-8-16-24s-15-38-19-49l-9-20v15c-1 9 8 33 19 55 11 21 18 41 15 43-9 10-47-91-57-155l-11-65 11-60 11-60 29-62 29-61 51-51 51-50 55-27c30-15 60-27 67-27 6 0-20 16-59 35l-71 36-46 51c-26 29-55 69-66 90-30 59-22 59 12-1 17-29 51-73 75-98l45-44 62-30c34-16 68-29 75-29h13l-6-10-6-10h15c8 0 28-11 45-25l30-26 20 20c11 11 32 23 46 27l25 6-5 8-5 8 50 17 51 17 45 35c26 19 48 32 50 30 8-7-63-57-118-82-29-14-47-25-40-25s36 12 64 26l51 26 52 49 53 50 31 63c17 35 31 70 31 77l-1 14-14-30-15-30 6 25c3 14 13 30 21 37l14 11 6 55 6 55-13 53c-7 30-25 79-41 109l-29 55 10 40c5 22 10 58 10 81v40l-13 18-14 19-24-13c-13-7-38-25-54-41l-30-28-50 25-51 24-62 12-62 12-59-12c-62-11-158-48-149-57 3-3 29 6 59 20l54 25 25-1 25-1-38-9c-40-9-121-48-115-54 2-3 22 5 44 16 23 11 66 24 97 29l57 9 57-9c31-5 73-18 95-28l38-19v8c0 5 5 9 10 9 21 0 7-17-65-80l-74-64-62-1-62-1-71 65c-39 36-80 74-91 84-31 29-78 63-97 70l-17 6-12-15zm379-11c-10-2-28-2-40 0l-23 4h40l40 1-17-5zm113-24c27-12 48-24 45-26-2-3-18 3-35 11-17 9-47 20-68 25l-38 9 23 1c13 1 46-9 73-20zm228-218c11-27 21-56 20-63 0-7-9 11-20 40-27 69-34 62-10-9 10-30 22-76 25-104l6-50-8-29-8-30-13-4-14-5 6 10 6 10h-28l5-9 5-8-13-1-13-1 13-5c6-2 10-8 8-12-3-4 1-8 9-8h14l-5 9-5 8h10c14 0 14-9 0-50l-12-33-18 34c-10 19-18 44-19 55v22l13 11 14 11 7-7 7-7-7 18-7 19-24-27-24-28 7-21c4-12 8-33 9-47 2-14 6-34 10-45l7-20-15 18c-8 9-17 17-21 17h-7l6-10 6-10-11-35-12-35h-11c-6 0-32 15-59 32l-47 33-2 28c-1 15-2 31-3 36s15 22 34 38l35 28 4 40 3 40 28 30c15 17 31 41 35 55s17 43 28 65c12 22 20 43 19 48-1 4 2 7 7 7s18-22 30-49zM127 598l-5-13v50l5-12c2-7 2-19 0-25zm800-85-5-18v70l5-17c2-10 2-26 0-35zm-800-65-5-13-1 19c-1 11 2 17 5 13 3-3 4-12 1-19zm730-141c-20-30-40-58-46-61l-11-7v9c0 5 9 17 20 27 12 11 31 36 42 57 12 21 23 36 26 34 2-3-12-29-31-59zm-11 292-19-32 12 7 11 7v-18c0-10-5-25-10-33l-10-15v20l-10-15c-28-43-1-39 28 4l23 34-3 37-3 37-19-33zm26-59-13-21 16-22 15-21v42c0 23-1 42-3 42-1 0-8-9-15-20z"/></g><g fill="#f0c67c" transform="matrix(.1 0 0 -.1 0 104)"><path d="m172 958-12-12v-55c0-31 4-73 9-93l9-37-14-12c-7-6-22-35-33-64l-20-54-7-63-6-64 16-62c8-34 26-83 40-109l24-48 51-51 50-50 55-27c30-15 61-27 68-27s-7 10-31 21c-58 26-113 60-107 66 2 3 17-5 33-16 16-12 54-32 86-45l57-23-7-6-6-7h16c8 0 30-12 47-26 17-15 33-24 37-21 3 3-8 17-23 31l-29 25 13 13 13 13-6-16-6-17 21-15 21-15 39 16c21 9 36 20 34 23-3 6 35 22 101 43 11 4-2-5-30-19-27-13-44-25-37-25s36 12 64 26l51 26 52 49 53 50 31 63c17 35 31 70 31 77l-1 14-14-30-15-30 6 25c3 14 13 30 21 37l14 11 6 55 6 55-13 53c-7 30-25 79-41 109l-29 55 10 40c5 22 10 58 10 81v40l-13 18-13 18-30-15c-29-15-62-46-63-59s-9-11-64 17l-53 26-62 11-62 12-59-12c-33-6-82-21-108-33s-56-23-65-24l-17-2 2 11 2 11-13-3-13-2 5 9 6 9-25 16-26 17-8-6-9-5-4 10-3 11-13-13zm376-15c-10-2-28-2-40 0l-23 4h40l40 1-17-5zm-111-14c-40-9-121-48-115-54 2-3 22 5 44 16 23 11 66 24 97 29l57 9 57-9c31-5 73-18 95-28 21-11 38-16 38-12 0 9-68 40-111 50l-34 8 24 1 23 1 59-26c33-15 59-30 59-33s-34-35-75-71l-74-64-62-1-62-1-71 65c-39 36-72 68-74 71-1 4 23 19 55 33l58 27 25-1 25-1-38-9zm-177-55c0-7 6-15 13-17l12-5-13-1-13-1-6 18c-3 9-13 26-22 37l-16 20 23-19c12-11 22-25 22-32zm51-21 14-18-17 14c-10 7-18 15-18 17 0 8 8 3 21-13zm-1-45c8-13 15-27 15-33 0-5 4-16 8-22l8-13h-42l5 9 6 9-12 5-13 5 15 11 15 10-20 8c-11 4-21 14-22 21l-3 12h13c7 0 19-10 27-22zm460 18c0-8-31-36-41-36h-9l17 20c16 18 33 26 33 16zm-67-21c-3-9-8-14-10-11-3 3-2 9 2 15 9 16 15 13 8-4zm-494-75v-15l-8 15c-5 8-11 31-15 50l-6 35 14-35c8-19 15-42 15-50zm532 41-14-9 6-9 6-10h-28l2 19 1 18h41l-14-9zm119-21c9 0 50-93 49-112 0-7-9 11-20 40-27 69-34 62-10-9 10-30 22-76 25-104l6-50-8-29-8-30-13-4-14-5 6 10 6 10h-28l5-9 5-8-13-1-13-1 13-5c6-2 10-8 8-12-3-4 1-8 9-8h14l-5 9-5 8h10c14 0 14-9 0-50l-12-33-18 34c-10 19-18 44-19 55v22l13 11 14 11 7-7 7-7-7 18-7 19-24-27-24-28 7-21c4-12 8-33 9-47 2-14 6-34 10-45l7-20-15 18c-19 22-22 22-22-5-1-13-5-34-9-48l-8-25 16 20 16 20-7-19-6-19 12 7c7 4 25 29 41 54 16 26 30 43 30 39s-15-32-34-61l-34-53-46-38c-26-21-49-36-51-33-3 2 13 18 35 34 44 32 48 42 23 51-10 3-39 20-65 37l-47 31-2 28c-1 15-2 31-3 36s15 22 34 38l35 28 4 40 3 40 28 30c15 17 31 41 35 55s18 44 30 67l23 43-9 5c-5 4-8 14-8 23l1 17 5-17c2-10 8-18 13-18zM278 565l22-16-2-39-1-40 24-21c13-12 34-28 47-36l22-16-9-11c-5-6-11-22-13-35l-3-24-47-33c-47-32-62-36-85-21l-13 8v-7c0-4 8-17 18-29 9-12 0-3-22 19-21 23-47 58-57 78-30 58-22 59 11 1 16-28 34-54 40-58l10-6v25l16-20 16-19-7 20c-4 11-11 34-14 50l-7 30-12-20-11-20-1 13c0 7 5 22 10 33l11 19h-22l10 18c5 9 9 41 9 70v52h-26l-5 26-4 25 14-5 13-6-10 20c-5 10-15 22-20 25l-10 6v-64l22-36 22-36-22 19c-12 10-24 27-27 37-4 11-11 19-16 19h-9v-82l15 12 15 12 15-12c8-6 17-20 20-29l5-18-18-41-19-42-11 25c-15 32-15 55-1 55h10l-5-8-5-9h28l-5 9-5 8 13 1 13 1-13 5-12 5 6 10 7 11-11-7-10-6-5 7c-2 5-2 2-1-4l3-13h-28l-7 36-6 35 6 51c4 28 16 73 26 101 11 28 18 53 15 55-2 3-10-8-16-24s-15-38-19-49l-9-20v14c-1 8 9 35 21 60l22 46 41-88 40-87 23-15zm554 153-12-12v10c0 14 12 26 19 19 2-3-1-11-7-17zm-491-3c-1-15-24-12-29 3l-4 14 16-4c10-1 17-7 17-13zm394 5 6-10h-41v10c0 6 6 10 14 10s18-4 21-10zm-478-68c-7-4-46 37-47 50 0 4 12-5 28-20 15-15 24-29 19-30zm543 13c-7-8-17-15-22-15h-9l13 15c7 8 17 14 22 15h8l-12-15zm-673-67-5-13v50l5-12c2-7 2-19 0-25zm160 15-7-6 13-16 12-16-17 14c-21 15-23 31-6 31h11l-6-7zm49-31-18-17 12 23c6 13 14 21 18 18 3-4-2-14-12-24zm114 20c0-4-16-12-35-18l-35-11 11 13c6 7 20 15 32 17s23 5 25 6c1 0 2-2 2-7zm197-15 6-10-17 6c-10 4-24 7-32 7s-14 4-14 9v8l25-5c14-2 28-9 32-15zm-162 4 5-10-10-6-10-6v15c0 18 6 21 15 7zm85-1c0-5-4-10-10-10-5 0-10 5-10 10 0 6 5 10 10 10 6 0 10-4 10-10zm357-77-5-18v70l5-17c2-10 2-26 0-35zm-482-7 18 7-5-14-5-14-24-3-24-3-24 22-23 22 13 8 14 8 21-20 21-20 18 7zm215 16c0-14-33-40-55-44l-19-3-4 18-4 19 22-12 22-12 6 7c4 4 8 11 8 16 3 17 4 19 14 19 6 0 10-4 10-8zm-300-42c0-5-5-10-11-10h-10l6 10c3 6 8 10 11 10 2 0 4-4 4-10zm130-31c0-22-6-24-25-5l-14 13 11 11c15 15 28 6 28-19zm87 14 4-11-16-5-15-6v41l12-4c6-2 13-9 15-15zm-450-15-5-13-1 19c-1 11 2 17 5 13 3-3 4-12 1-19zm357-140c-3-4-9-8-15-8-5 0-9 4-9 8 0 5 7 9 15 9h14l-5-9zm-115-70c1-28 5-56 8-61l5-9-23 12c-13 7-36 22-51 32l-28 19v28l14-5 13-5 7 16 6 16 9-6 10-5 6 10c3 5 10 10 14 10h7l3-52zm341 38c1 5 9-1 19-14l19-22 5 12 5 13 1-15c1-17-17-40-32-40h-8l7 12 7 11-12-7-11-7 5-9 6-9-31-16-30-16v35c0 19 5 47 10 61l10 27 15-12 15-12v8zm-159-53c-12-20-14-14-5 12 4 9 9 14 11 11 3-2 0-13-6-23zm-64-15-5-13v50l5-12c2-7 2-19 0-25zm71-83c-3-3-9 2-12 12l-7 18 12-12c7-7 10-15 7-18zm288 474-19-32 12 7 11 7v-18c0-10-5-25-10-33l-10-15v20l-10-15c-28-43-1-39 28 4l23 34-3 37-3 37-19-33zm26-59-13-21 16-22 15-21v42c0 23-1 42-3 42-1 0-8-9-15-20zm-482-28c0-12 19-26 26-19 2 2-2 10-11 17l-15 12v-10z"/></g><g fill="#e19f4a" transform="matrix(.1 0 0 -.1 0 104)"><path d="M169 952c0-4 0-29 1-57l1-50 19-40c27-57 43-98 44-113 1-7 12-22 26-32l25-20h-13c-8 0-28 15-45 33l-31 32 27-49c15-27 27-54 27-61s11-20 25-29l25-16-2-39-1-40 33-28c18-15 39-32 47-36l13-8-10-19c-5-10-10-27-10-38v-20l-22-16-23-17 22 6 21 6 4-63c2-35 3-65 1-67-4-7-113 68-111 77 1 4-6 21-15 39s-17 42-17 55l-1 23-14-19-15-20v13c0 7 5 21 10 32l11 19h-22l10 18c5 9 9 41 9 70v52h-26l-5 26-4 25 13-5 14-5-17 27-18 26-3-32-3-33 21-37 22-37-35 40-36 39-4-39c-2-22-3-10-1 27l3 67 25 62c14 34 23 66 20 71l-5 8-11-6c-16-10-47-87-58-141l-9-48 20-84c22-91 37-127 75-178 32-42 30-52-3-22l-27 24 34-40c44-52 125-118 105-85l-6 10h8c4-1 19-7 33-16l25-15-24 7-24 6 7-10c3-5 15-12 26-15l20-5-7 11-6 10 17-6c10-4 29-10 42-13l24-6-6-9-5-9h15c8 0 28-11 45-25l30-26 20 20c11 11 32 23 46 27l25 6-5 8-5 8 32 11c17 6 35 11 40 11h9l-6-11-7-10 41 20c42 22 54 35 24 25l-18-6 20 16c48 39 107 102 129 140 30 52 56 138 57 190v41l9-20 9-20v25c1 36-22 118-48 168-21 41-36 58-24 25l6-16-11 7-12 7 20-46c11-25 24-74 30-109l11-63-8-33-9-34-13-4-14-5 6 10 6 10h-14c-8 0-12-4-9-8 2-4-2-10-8-12l-13-5 13-1 13-1-5-8-5-9h28l-5 9-5 8h10c14 0 14-9 0-50l-12-33-18 34c-10 19-18 44-19 55v22l13 11 14 11 7-7 7-7-7 18-7 19-24-27-24-28 7-21c4-12 8-33 9-47 2-14 6-34 10-45l7-20-15 18c-19 23-22 22-23-13l-1-29-17-25c-9-14-16-29-17-33 0-8-98-73-109-73-3 0-2 31 3 70l10 69 18-10 19-10v8c0 5-9 14-20 21l-20 12v51l-28-21c-16-12-36-22-45-24-9-1-24-11-32-22l-15-19 11 26 11 26 36 9 37 9 11 22c6 12 26 35 45 50l34 28 4 40 3 40 25 27c14 14 24 29 24 32-1 3 10 30 25 59l26 52-32-37-31-38h-33l34 30c19 16 31 29 26 30h-9l15 18c9 9 25 43 37 75l21 58v109l-27-11c-16-6-40-22-55-37-16-14-28-22-28-18 0 11-175-147-178-161l-3-13-17 16-16 16-43-6-44-6-37 34c-20 18-52 47-71 63l-34 30 45 22c25 12 71 26 102 31l56 9 57-9c31-5 73-18 95-28 21-11 38-16 38-12s-21 17-48 28l-47 21-68 9c-37 5-70 6-73 3s-26-11-52-17l-47-12-8 11-9 12 6-17 5-18h-8c-5 0-12 5-14 10l-5 11 2-13c2-7-4-18-13-25l-16-12-22 21c-13 12-23 18-23 13s-10 1-22 13c-13 11-35 25-50 31l-28 11-1-8zm85-62c14-22 23-40 19-40-14 0-28 15-45 48l-17 32h8c5 0 20-18 35-40zm554 4c-13-29-26-44-41-44-4 0 5 18 19 40 30 45 41 47 22 4zm-469-78c28-41 51-79 51-84 0-6 5-12 12-14l12-4-12-8-12-7-14 33c-8 18-32 58-53 88s-43 61-47 69l-9 14 10-6c6-4 33-40 62-81zm367-14c-30-44-52-82-50-85 3-3 1-8-5-12l-11-6v13c0 20 109 182 117 174 2-2-21-39-51-84zm-380-19 31-52-3-28c-3-39-3-40-15-20-5 9-17 17-24 17h-15v14c0 8 6 17 13 19l12 5-18 1-18 1 6 10 6 10h-23l11 14 12 14-14 5c-8 3-17 15-20 27l-5 21 16-3 17-3 31-52zm447 40c-4-10-12-21-19-26l-12-7 3-25 2-25h-21l-21-1 19-10 18-11-13-9c-8-5-20-9-27-9h-13l4 23c9 53 51 117 77 117h9l-6-17zM160 702c-11-22-20-47-21-54l-1-13-5 13-5 12 22 46c12 25 24 43 26 41s-5-22-16-45zm395 18 6-10h-10c-6 0-11 5-11 10 0 6 2 10 4 10 3 0 8-4 11-10zm354-80c0-8-9 8-19 35-11 28-20 52-19 55 2 11 38-76 38-90zm-442 54 6-15 14 5 15 6-4-12c-2-6-9-13-15-15l-11-4-7 21-6 20-10-5-9-6v10c0 17 20 13 27-5zm123 6c-8-5-19-10-25-10h-10l15 10c8 5 20 10 25 10h10l-15-10zm115-20c-3-5-11-10-16-10h-10l6 10c3 6 11 10 16 10h10l-6-10zm-275-5c0-1-7-5-15-8l-14-6-5 7-5 8 20 1c10 1 19 0 19-2zm40-26c0-14-17-10-23 5l-6 15 15-6c7-3 14-9 14-14zm186-6c-7-7-26 7-26 19v10l15-12c9-7 13-15 11-17zm44 13c0-3-4-8-10-11l-10-6v10c0 6 5 11 10 11 6 0 10-2 10-4zm-238-36c28-24 37-50 18-50h-10v20c0 23-6 25-24 8l-13-13 16-13 16-14-20 8c-11 4-30 7-43 7l-23-1 4 12c2 6 19 16 38 23l34 11-15 5c-8 3-21 7-29 9l-14 4-26-25-26-26 3-14 3-13-11 7-12 8-9-14-9-14v13c0 7 16 30 36 51l37 39 25-2 26-1 28-25zm98 26c0-3-4-8-10-11l-10-6v10c0 6 5 11 10 11 6 0 10-2 10-4zm-433-48-5-13v50l5-12c2-7 2-19 0-25zm183 15c0-5-4-14-9-22l-9-14-11 7c-6 4-11 14-11 22v14h20c11 0 20-3 20-7zm260-18v-25h-20v18c0 17 8 32 17 32 2 0 3-11 3-25zm130 5c11-11 20-26 20-32l-1-13-15 20c-8 11-22 26-31 33l-17 12h12c7 0 21-9 32-20zm60 0c-6-11-15-20-19-20h-9l3 18c2 9 4 18 4 20 1 1 8 2 16 2h16l-11-20zm-114-11 19-22-22 7-22 7-23-11-23-11 19 15 20 16h-35l6 10c3 6 14 10 24 10h18l19-21zm-156-50v-10l10 6 10 6v-10c0-6 5-11 11-11h10l-7 13-7 12 8-7 8-8 14 11 13 11v-9c0-5-3-13-7-17s-8-15-8-24v-17h-32c-18 0-33-1-33-2s4-13 10-27l10-26h-20c-10 0-22 5-26 11l-6 11 21 29 22 29-11 20-11 20h11c5 0 10-5 10-11zm-90-14 12-15h49l-3-17-3-18-19-3-18-4-30 22c-16 12-32 19-35 16-4-3-2-6 3-6s10-9 11-20c2-24-10-26-27-5l-13 16 23 24c27 29 33 30 50 10zm277-2 20-18-8-22c-5-13-13-23-19-23-13 0-13 17 0 25 6 3 10 10 10 15v9l-42-19-42-19-13 11-13 10v-10c0-6 5-14 10-17l11-7-12-14c-11-14-39-20-39-8 0 3 7 21 16 40l16 34h46l12 15c16 19 22 19 47-2zm-481-48 16-25-18-44-19-45-12 22c-7 12-12 30-13 40v17h21l-5-8-5-9h28l-5 9-5 8 13 1 13 1-13 5-12 5 6 10 7 11-11-7-10-6-5 7c-2 5-2 2-1-4l3-13h-29v13c0 14 20 37 32 37 4 0 15-11 24-25zm243-125h21v-21l10 6 10 6-6-15-6-14 14 2c7 1 19 6 27 10l14 9-7-11-7-12h15c21 0 20-19 0-27l-17-6-12 16-12 17-7-8-8-7-9 18c-6 9-15 17-22 17s-23 10-37 21l-25 20 22-10c12-6 31-11 42-11zm-196-72 18-31-16 13c-9 7-21 22-26 32l-10 18h8c4 0 16-14 26-32zm552-17-27-26 24 36 23 36 4-9c2-6-9-22-24-37zm-500-70c-3-3-22 12-43 33l-37 39 42-33c24-18 41-36 38-39zm254 25-12-11 7 18c3 10 7 24 7 30 1 7 3 4 6-7l5-18-13-12zm-152 12-5-13-1 19c-1 11 2 17 5 13 3-3 4-12 1-19zm93-10c0-36-4-35-14 5l-6 27h20v-32zm220-48c-8-5-19-10-25-10h-10l15 10c8 5 20 10 25 10h10l-15-10zm-168-20 22-20-22-22-22-22-22 21-22 22 19 21c22 25 21 25 47 0zm-42-5-13-16 16-16 16-16 16 17c10 9 16 18 14 19-2 2-11 8-20 15l-16 12-13-15zm346 454-19-32 12 7 11 7v-18c0-10-5-25-10-33l-10-15v20l-10-15c-28-43-1-39 28 4l23 34-3 37-3 37-19-33zm26-59-13-21 16-22 15-21v42c0 23-1 42-3 42-1 0-8-9-15-20zm-98-332-19-23 23 19c21 18 27 26 19 26-2 0-12-10-23-22zm-386-75c7-3 16-2 19 1 4 3-2 6-13 5l-19-1 13-5z"/></g><g fill="#b67231" transform="matrix(.1 0 0 -.1 0 104)"><path d="M174 936c-8-20 4-100 18-132l11-23 8 5 9 5-7-17-6-17 10 6 11 7v-51l18-21 19-21-15 7c-8 5 1-7 21-25 20-19 39-43 44-54l8-20 4 18 4 17h39v10c0 6-6 10-13 10s-18 9-25 20l-12 20 12 1h13l-23 12-23 11 4 16 4 16-14 13-14 13 5 13 5 14-14 11-15 12 6 9 5 9h-23l5 14 6 15-8 3c-4 2-16 21-27 42-11 22-26 42-32 44l-12 4-6-16zm647-19c-12-19-21-38-21-42s-8-14-17-22c-10-8-12-12-5-8l12 6v-10c0-6-3-11-7-11-11 0-33-50-33-72v-18l-17-1h-18l16-11 17-11-28-24c-15-13-33-23-40-23h-11l5 8c3 5 8 23 11 41 6 35 15 51 88 155 27 37 44 65 37 61-21-13-108-136-141-198l-32-64 19-26c10-15 25-27 32-27h13l15-35c8-19 17-35 20-35 2 0 15 9 27 21l22 20-27-6-28-7v51l35 28 34 27-11 7-11 7 22 11c11 7 21 16 21 22v10l-10-6c-6-4 1 10 14 30l25 36 12 52c12 58 10 88-7 94l-12 4-21-34zM695 650c-3-5-11-10-16-10h-10l6 10c3 6 11 10 16 10h10l-6-10zM256 890c21-30 45-62 53-70s25-38 38-67l24-52-10-20-11-19 14-5c33-13 35 27 5 86-24 48-111 168-136 188-9 8 1-11 23-41zm185 41c-44-12-111-42-111-51 0-4 17 1 38 12 22 10 64 23 95 28l57 9 57-9c31-5 73-18 95-28 21-11 38-16 38-12s-23 17-51 29l-51 22-66 4-67 4-34-8zm-97-116c31-44 60-87 63-95 4-8 17-26 30-39l23-24v11c0 6-4 14-10 17-5 3-10 13-10 21v15l10-6 10-6v8c0 13-10 23-94 103l-79 75 57-80zm81-73c-6-7-35 18-35 31v10l20-18c11-10 18-20 15-23zm274 101c-24-26-44-51-44-55s-8-17-18-29l-18-21-13 5-12 5-13-20-13-21 16 6 16 6v-14c0-23 13-18 31 13 9 15 40 60 68 100 28 39 50 72 48 72s-24-21-48-47zM478 733c7-3 16-2 19 1 4 3-2 6-13 5l-19-1 13-5zm28-9c-7-18 1-37 13-29 5 2 11 14 14 25l5 20h-13c-7 0-16-7-19-16zm-351-30c-9-22-22-66-29-99l-12-60 12-67 13-68 28-52c15-28 49-73 75-100l47-48 63-30c35-17 74-30 88-31h25l-20-9-20-9h17c9-1 31-13 48-27l31-27 12 16c7 8 26 22 42 31l30 15-15 1c-8 1 11 9 43 20 133 42 232 145 272 284l17 59-4 61-5 61-22 58c-29 73-37 70-12-4 10-30 22-76 25-104l6-50-8-29-8-30-13-4-14-5 6 10 6 10h-14c-8 0-12-4-9-8 2-4-2-10-8-12l-13-5 13-1 13-1-5-8-5-9h28l-5 9-5 8h10c14 0 14-9 0-49l-11-32-23 38-23 38 3-35c2-19 6-43 10-53l7-17-15 5-15 6-11-33-11-33 20 25c11 14 20 20 20 14 0-16-27-49-42-49h-13v-28l-49-34c-26-18-54-33-60-33h-12l7 70c4 38 11 74 14 80l6 10h-19l5 20 5 20-12 15-13 16 19 13c10 8 29 23 42 34l22 19v74l-21 22-20 22 6-17 7-18h-34l5 21 6 22-12-12-11-11h-62l-16-12c-9-7-19-22-22-34l-6-21 15-13 15-13-6 17-6 16h50l12 15c17 21 33 19 58-7l21-23-12-20-12-21-12 2c-7 1-15 2-18 3-3 0 3 13 12 28l18 28-32-23c-17-12-38-22-46-22h-15l-5-19-4-18-26-5-26-5 10 19 10 18-6 10c-3 6-17 10-31 10h-24v-18c0-10 5-23 12-30l12-12h-47l-13 17-12 18 10 13 11 12-16-6-17-6-29 10-30 11 6-14c2-8 13-17 23-20s23-12 30-20l11-13-21 5c-11 3-23 9-26 14s-13 9-23 9-25 8-35 18l-16 19 24 26c28 30 51 35 60 12l5-15h24c13 0 28-5 35-12l12-12v44l-20 20-20 20-39-2c-22-2-37-6-35-9 2-4-5-9-16-12l-20-5 6 9c8 14-6 11-22-5l-14-15v-53l47-43 47-43-13-16-13-16 5-14c3-7 2-17-2-22l-8-9 7-70c4-38 5-72 4-74-9-11-110 61-114 81-1 4-9 26-18 48l-17 40-12-4-12-5 3 32c2 18 6 45 11 60l7 28-27 40-28 40-10-13-9-13 6 18 6 19-7 11-8 12-7-45-7-45 4 70 3 71 21 54c24 62 20 81-4 24zm44-226 15-26-19-42-19-41-12 23c-8 13-13 31-14 41v17h21l-5-8-5-9h28l-5 9-5 8 13 1 13 1-13 5-12 5 6 10 7 11-11-7-10-6-5 7c-2 5-2 2-1-4l3-13h-29v13c0 17 22 38 35 34 5-2 17-15 24-29zm421-28c0-5-5-10-11-10h-10l6 10c3 6 8 10 11 10 2 0 4-4 4-10zm-113-46c-3-3-12-4-19-1l-13 5 19 1c11 1 17-2 13-5zm148-24c-6-9-52-37-72-43-4-1-22-16-39-32l-31-30 5-14 5-14-10 6c-6 4-13 20-16 37l-6 30-14-6-14-5-6 15c-4 9-12 16-19 16s-24 10-38 21l-25 20 22-10c12-6 31-11 42-11h21v-21l10 6 10 6-6-16-6-15 16 6c9 3 16 11 16 17v11l12-12c7-7 20-12 29-12h17l6 15 5 15h18c10 1 29 7 43 15 30 17 33 18 25 5zm-416-85c11-19 17-35 13-35-8 0-42 53-42 64 0 13 9 4 29-29zm250-70-1-30-8 25c-4 14-8 34-9 45l-1 20 10-15c5-8 9-28 9-45zm62-8-11-11v16c0 9 3 25 7 35l8 18 3-24 4-23-11-11zm86 31-5-13-1 19c-1 11 2 17 5 13 3-3 4-12 1-19zm-240-10-5-13-1 19c-1 11 2 17 5 13 3-3 4-12 1-19zm145-78 22-20-22-22-22-22-24 23-25 24 22 18c27 23 24 23 49-1zm-45-14-6-15 13-10 13-11 13 14 12 15-7 11c-9 15-32 12-38-4zm13 534c0-5 5-10 10-10 6 0 10 5 10 10 0 6-4 10-10 10-5 0-10-4-10-10zm-290-4c0-5 10-21 21-38l22-30 8 14c12 18 11 28-3 28-6 0-20 7-30 17-10 9-18 13-18 9zm195-6-6-10h10c6 0 11 5 11 10 0 6-2 10-4 10-3 0-8-4-11-10zm195-5c7-9 15-13 17-11 7 7-7 26-19 26h-10l12-15zm165-8c-11-7-22-13-24-14-1-1 3-8 10-16l13-14 18 23c28 35 21 44-17 21zm-265-26v-30l-10-6c-16-10-12-21 15-33l24-11-6 31-6 31 19 15 19 14-24-7-24-7 6 16 6 16h-19v-29zm119-12c13-11 26-17 29-14 7 6-29 34-43 34-5 0 1-9 14-20zm-221 4c7-3 16-2 19 1 4 3-2 6-13 5l-19-1 13-5zm439-19-18-24 17 7 16 6-7-24c-4-13-14-29-22-36-8-6-13-16-12-22l4-11 23 34 23 34-3 30-3 30-18-24zm-677-10v-27l22-35 22-36 4 12 3 11-21 21-22 22 6 23 6 24-10 6-10 6v-27zm287 9c-10-9-9-23 1-23 5 0 9 7 9 15 0 17-1 18-10 8zm-180-25 22-22 8 8 8 8-19 14c-11 8-24 14-30 14h-10l21-22zm283 5-14-17 18 7c10 4 20 7 22 7s4 5 4 10c0 15-13 12-30-7zm292-68c-17-25-32-49-32-53 0-3 7 4 16 16l15 22 10-5 9-6-7 18-7 18 17-14 17-13v11c0 6-6 11-12 11h-13l14 9 13 9-3 11-4 12-33-46z"/></g><g fill="#874619" transform="matrix(.1 0 0 -.1 0 104)"><path d="m175 930-6-20 6-30 7-30h9c17 0 62-108 68-161 1-4 17-24 36-45l35-39v24l14-5 14-5 7 10 6 11h-39l-6 16c-3 9-4 20-1 24l5 9-20 6-20 6v29h13l12 1-17 10c-10 5-18 16-18 23 0 17-24 66-32 66h-7l5 15 6 15h-11c-6 0-11 6-11 13 0 20-30 77-40 77-5 0-12-9-15-20zm646-16-21-36 5-9 6-9h-9c-6 0-13-12-17-27-3-15-12-31-18-35-11-6-17-34-19-75v-23h-28l-6-30-6-30h-38v-20h40v-12c0-7 9 2 20 20s27 35 34 38l15 6-6 14-5 14h23l-2 13c-4 20 22 91 42 118l19 24-6-20-7-20 7 7c4 3 12 24 16 45l9 38-6 23c-7 31-18 28-42-14zm-386 12c-46-11-121-45-102-46 5 0 17 5 28 10 11 6 52 19 92 30 39 10 63 18 52 18s-42-5-70-12zm200-20c39-14 71-23 73-21 6 6-98 45-120 45l-23-1 70-23zm-389 1c3-10 9-15 12-12s0 11-7 18l-12 12 7-18zm533-4-14-18 18 14c9 7 17 15 17 17 0 8-8 3-21-13zm-508-28c0-5 14-26 31-45l30-35-11 20c-16 31-51 71-50 60zm462-37c-32-45-66-108-59-108 2 0 18 24 35 53 17 28 38 62 47 75 9 12 14 22 12 22-3 0-18-19-35-42zm-393-13c13-14 26-25 28-25 3 0-5 11-18 25s-26 25-28 25c-3 0 5-11 18-25zm343-10c-10-13-33-45-52-70l-34-46 7-6c3-3 7-4 9-2 8 11 83 125 90 136 14 23-1 14-20-12zm-342-45c14-31 19-36 19-24 0 6-7 19-16 30l-15 19 12-25zm61-37c9-10 18-25 21-33l5-15 1 13c1 20-18 52-31 52h-11l15-17zm-32-32c4-16 6-32 2-35-3-3 0-6 6-6 7 0 12 6 12 13 0 23-12 57-20 57h-9l9-29zm140 18v-10l10 6c6 3 10 8 10 11 0 2-4 4-10 4-5 0-10-5-10-11zm351 8c-1-4 6-24 15-45 8-20 20-62 25-92l9-55-6-42-6-43h-29l5 8 5 9h-14c-8 0-12-4-9-8 2-4-2-10-8-12l-13-5 13-1 13-1-5-8-5-9h28l-5 9-6 9 18-3 18-3 9 45 9 45-10 61c-9 53-49 163-51 141zm-714-54-22-48V435l33-68 33-67 48-49c26-27 62-56 79-65 47-25 39-14-19 24l-51 33-28 44-29 45 5 13 5 13-10 7-11 6 7-18 6-18-11 10c-15 14-41 82-34 89 8 9 24 7 18-2l-5-9h14c8 0 12 4 9 8-2 4 2 10 8 12l13 5-13 1-13 1 7 12 7 11-11-7-10-6-5 7c-2 5-2 2-1-4l3-13h-13c-8 0-17 7-20 16-16 43 2 175 33 232 6 12 9 22 6 22s-16-21-28-47zm507 21-7-25 13-12 13-12-5 15c-3 8-1 25 3 38l9 22h-10c-5 0-13-12-16-26zm-424-42c0-4 7-15 14-25l13-17 11 13 10 12-24 12c-13 6-24 8-24 5zm553-5-22-12 8-13 8-13 10 13c13 17 25 38 21 38-2-1-13-6-25-13zm-273-63v-25l9 5 9 6-5 20c-7 28-13 25-13-6zm-228-18c7-8 15-12 17-11 5 6-10 25-20 25h-10l13-14zm296 8 12-6-20-25-20-25 6-9 5-9 30 15c16 9 29 13 29 10 0-4 10 1 21 9l21 15 25-30c14-16 29-29 34-29h9v48l-14 11-14 12 4-23 5-23-10 17-11 16-33 10c-38 12-97 23-79 16zm162-4c-8-5-12-12-9-15 4-3 12 1 19 10 14 17 11 19-10 5zm-357-7c-18-7-16-23 2-23 8 0 15-4 15-10 0-5 5-10 11-10h10l-7 13-8 12 16-12 15-13 6 7 7 6v-10c0-6 7-13 15-17l15-5v14c0 8-9 24-20 35l-20 20-22-1c-13 0-29-3-35-6zm-83-35v-10l15 6c19 7 19-4 0-18l-15-11 10-15 10-15v14c0 8 9 24 20 36l21 22-31 1-30 1v-11zm201-57-13-8 11-22 12-21h-22c-12 0-20-3-16-6 9-9 78-11 83-2l5 8h-15c-19 0-20 12-4 28l13 13-15 9c-18 12-22 12-39 1zm-70-23c5-10 11-18 12-18 2 0 3 8 3 18v19h-25l10-19zm156 2-5-20h9c4 0 13 9 19 20l11 20h-29l-5-20zm73-7c-19-8-58-27-87-41l-52-26-51 24c-28 13-60 23-71 23l-19-2 6 11 7 11-11-7-11-6-6 10c-3 5-11 10-17 10h-12l28-29 28-29-7-11-6-11 15-6 16-6 13 10 13 11 21-5 22-6-6-14-5-14 16 6 16 6 15-12c8-7 15-9 15-5s8 1 17-6l17-14-7 18-6 17h11c6 0 17 8 25 18l15 17-6-17-5-18 32 13 32 13v34l30 25c34 28 26 31-25 8zm217-60c-9-20-14-39-12-42 3-2 12 13 20 34 21 49 14 56-8 8zm-247-33-25-20-13 5-13 5-5-29-6-30-13 5-13 5-6-25c-9-35-25-33-38 4l-10 31-14-12-14-11-1 8c-1 5-2 15-3 21-1 10-69 53-83 53-2 0-1-43 1-95l5-95-12-1c-25-2 50-28 81-29h32l19 19 19 19 18-20 18-20 45 6 44 5 52 26 52 25 48 49c26 27 52 56 57 65l9 16-10 18-10 17-1-26v-25l-37-44c-38-44-116-100-140-100h-13l5 33c2 17 7 62 9 100l4 67h-6c-4 0-18-9-32-20zm-190-40c0-5-7-10-16-10h-15l6 10c3 6 10 10 16 10 5 0 9-4 9-10zm-37-92 6-58h-7c-4 0-9 28-10 62-4 77 3 74 11-4zm87-7c0-46-9-35-16 20l-5 44 10-15c6-8 11-30 11-49zm66-9c-13-12-17 8-10 40l9 33 3-33c2-19 1-36-2-40zm90 35c-3-12-5-34-5-49l-1-28h-18l3 18c2 9 4 34 4 55l1 38 10-6 10-6-4-22zM507 135l-6-14 10-7 11-6 11 11 11 11h-25l6 10 6 10h-9c-6 0-12-7-15-15zm-46-12c0-4 14-19 30-32l30-23 12 15c7 8 21 19 32 25l20 11-16 1c-9 0-24-9-34-20l-19-21-8 16c-5 8-18 19-28 25l-20 11 1-8z"/></g><g fill="#491c0e" transform="matrix(.1 0 0 -.1 0 104)"><path d="M180 920c0-11 4-20 8-20s18-20 30-46l22-45 11 7 11 7-9 6c-12 7-36 51-39 69-5 26-13 42-24 42h-10v-20zm651-2c-10-28-9-30 13-22l16 6v38h-10c-6 0-14-10-19-22zm-17-46 5-9-19-21-19-20 13-5 14-6 5 17c3 9 8 25 12 35l7 17h-23l5-8zm-564-87c0-16 16-20 24-6l6 9-15 6-15 5v-14zm510-5c19-13 30-13 30 0v10h-45l15-10zm-490-60v-20h19l-2 20c-1 11-5 20-9 20s-8-9-8-20zm485 10-6-10h10c5 0 13 5 16 10l6 10h-10c-5 0-13-4-16-10zm-339-13c3-10 9-15 12-12s0 11-7 18l-12 12 7-18zm199 2c-4-6-5-12-2-15 2-3 7 2 10 11 7 17 1 20-8 4zm-332-30-11-11 23-26c13-14 33-27 44-29l21-3v20h-37l-6 30c-7 32-16 37-34 19zm438-19-10-30h-15c-9 0-16-4-16-8 0-12 36-8 53 6 8 7 17 24 20 37l4 25h-25l-11-30zm-481-30c0-5 4-11 9-15l10-5 5 9 6 9-15 6-15 5v-9zm540 0-15-10h12c6 0 15 5 18 10 8 12 4 12-15 0zm-388-79-13-8 16-13 15-12v16l11-11 11-11 16 5 15 6-7-11-7-12h30l-6 18c-12 35-52 52-81 33zm185-9c-19-21-22-42-7-42 6 0 10 5 10 11v11l15-6 15-5v9c0 6 5 10 11 10h10l-7-12c-4-7 2-4 15 6l21 20-12 8c-7 4-22 8-34 8h-21l-16-18zm-253-44-19-23 23 19c21 18 27 26 19 26-2 0-12-10-23-22zm-155-51 11-11-10-11-10-12h15c8 0 12 4 9 8-2 4 2 10 8 12l13 5-13 1-13 1 5 8 5 9h-30l10-10zm321 5c0-4 6-14 12-20l13-13-15-9-15-10h60l-13 9-13 8 16 13c8 7 15 16 15 21v9h-60v-8zm369-5 11-11-10-11-10-12h15c8 0 12 4 9 8-2 4 2 10 8 12l13 5-13 1-13 1 5 8 5 9h-30l10-10zm-239-52-12-15h33l-6-10-6-10h19v25c0 28-10 32-28 10zm-225-15c2-29 10-33 13-5l2 25h-8c-5 0-8-9-7-20zm167 4-23-16-27 5c-15 2-35 8-44 12l-18 7v-11c0-6 5-11 11-11s24-9 39-20l28-20 6 16 6 16 17-6 17-7-7 7-7 7 17 19c20 22 15 23-15 2zm-181-44-1-15 20-13 20-12v30h-14c-8 0-17 6-19 13l-5 12-1-15zm252 0c-13-5-23-15-23-21v-11l23 5 22 6-19-14c-11-8-25-15-31-15-7 0-19-8-28-18l-17-19v-73h-70v-23l-6 6-7 6-21-10-21-10 25 21 25 21-14-3-14-3-5 14-5 14 12-7 11-7v28c0 15-4 33-8 38-5 8-76 45-85 45-1 0-2-11-2-25v-25l13 17 12 17v-21c0-12 4-24 10-28l9-6-6-14-5-15h10c6 0 12 6 15 13l5 12-1-22-1-23h-26v-19c0-23 12-32 46-36l24-2v18l9-6 10-5 10 17 10 18 15-21 15-21 25 2c35 4 46 13 46 36v20l-12-2c-7-1-19-1-25 0l-13 1v18l1 17 14-19 15-20v11c0 7-7 18-15 26l-14 15 14 6 15 5-1-7c-3-19 2-30 16-36l15-5v60l-10-6-10-6v8c0 5 9 14 19 20l20 12 4-27 4-27 2 58c0 31 0 57-1 56-2 0-13-4-25-9zm-203-85 13-15-17 6c-9 3-16 10-16 15 0 13 6 11 20-6zm-240 46c5-11 15-23 21-27l11-6-17 26c-20 30-30 35-15 7zm250 4c0-8 4-15 10-15h9l-5 15c-4 8-8 15-10 15s-4-7-4-15zm136 6c-4-7-5-15-2-18 9-9 19 4 14 18l-4 13-8-13zm243-38-14-18 18 14c16 13 21 21 13 21-2 0-10-8-17-17zm-336-23c6-16 13-27 15-25 7 7-8 55-17 55h-9l11-30zm52 0c-4-16-11-30-16-30s-9-7-9-16v-15l10 6c9 5 40 69 40 81 0 2-4 4-9 4s-12-13-16-30zm-295-15c13-14 26-25 28-25 3 0-5 11-18 25s-26 25-28 25c-3 0 5-11 18-25zm141 5c-1-8-3-32-4-52l-2-37 8 8 8 8-4 44c-2 24-5 37-6 29zm261-55v-30l5 18c2 9 2 23 0 30l-5 12v-30z"/></g></g></svg>